<?xml version="1.0" encoding="UTF-8" standalone="no"?>
<svg
   xmlns:dc="http://purl.org/dc/elements/1.1/"
   xmlns:cc="http://creativecommons.org/ns#"
   xmlns:rdf="http://www.w3.org/1999/02/22-rdf-syntax-ns#"
   xmlns:svg="http://www.w3.org/2000/svg"
   xmlns="http://www.w3.org/2000/svg"
   xmlns:sodipodi="http://sodipodi.sourceforge.net/DTD/sodipodi-0.dtd"
   xmlns:inkscape="http://www.inkscape.org/namespaces/inkscape"
   version="1.1"
   id="Capa_1"
   x="0px"
   y="0px"
   viewBox="0 0 512.003 512.003"
   style="enable-background:new 0 0 512.003 512.003;"
   xml:space="preserve"
   width="512px"
   height="512px"
   class=""
   sodipodi:docname="games.svg"
   inkscape:version="0.92.4 (5da689c313, 2019-01-14)"><metadata
   id="metadata41"><rdf:RDF><cc:Work
       rdf:about=""><dc:format>image/svg+xml</dc:format><dc:type
         rdf:resource="http://purl.org/dc/dcmitype/StillImage" /></cc:Work></rdf:RDF></metadata><defs
   id="defs39" /><sodipodi:namedview
   pagecolor="#ffffff"
   bordercolor="#666666"
   borderopacity="1"
   objecttolerance="10"
   gridtolerance="10"
   guidetolerance="10"
   inkscape:pageopacity="0"
   inkscape:pageshadow="2"
   inkscape:window-width="1304"
   inkscape:window-height="745"
   id="namedview37"
   showgrid="false"
   inkscape:zoom="0.65186406"
   inkscape:cx="313.80819"
   inkscape:cy="139.33833"
   inkscape:window-x="54"
   inkscape:window-y="-8"
   inkscape:window-maximized="1"
   inkscape:current-layer="Capa_1" /><path
   inkscape:connector-curvature="0"
   id="path2"
   class=""
   data-original="#FFD33F"
   d="m 134.544,181.08073 c -4.807,0 -9.615,0.26 -14.396,0.772 -55.64,5.979 -108.764,58.886 -114.942,114.543 -8.218,71.417 43.022,135.969 114.438,144.187 29.113,3.35 58.495,-3.228 83.408,-18.657 12.617,-8.209 27.013,-13.268 41.991,-14.752 3.61,-0.321 7.272,-0.477 10.986,-0.477 3.523,0 7.02,0.121 10.482,0.373 15.203,1.432 29.833,6.543 42.624,14.891 61.177,37.756 141.374,18.769 179.13,-42.407 15.351,-24.87 21.885,-54.182 18.544,-83.209 -6.17,-55.614 -59.302,-108.512 -114.943,-114.491 -4.773,-0.512 -9.563,-0.772 -14.353,-0.772 H 134.544 Z"
   style="fill:#ffd33f" /><circle
   id="circle4"
   data-original="#EA3836"
   r="26.033001"
   cy="311.24374"
   cx="316.772"
   style="fill:#ea3836" /><path
   inkscape:connector-curvature="0"
   id="path6"
   data-original="#FFAC3E"
   d="m 482.4,237.21573 c -104.443,117.051 -339.665,160.613 -431.534,173.551 42.945,36.307 104.399,40.793 152.16,11.116 12.617,-8.209 27.013,-13.268 41.991,-14.752 3.627,-0.286 7.306,-0.434 11.012,-0.434 3.523,0 7.02,0.121 10.482,0.373 15.203,1.432 29.833,6.543 42.624,14.891 61.177,37.756 141.374,18.769 179.13,-42.407 15.351,-24.87 21.885,-54.182 18.544,-83.209 -2.802,-21.512 -11.219,-41.904 -24.409,-59.129 z"
   style="fill:#ffac3e" /><polygon
   id="polygon8"
   data-original="#383856"
   points="195.286,399.166 151.899,399.166 151.899,442.554 117.189,442.554 117.189,399.166 73.801,399.166 73.801,364.456 117.189,364.456 117.189,321.068 151.899,321.068 151.899,364.456 195.286,364.456 "
   style="fill:#383856"
   transform="translate(0,-70.567272)" /><g
   id="g14"
   transform="translate(0,-70.567272)">
	<circle
   id="circle10"
   data-original="#91CECE"
   r="26.033001"
   cy="329.746"
   cx="377.51401"
   style="fill:#91cece" />
	<circle
   id="circle12"
   data-original="#91CECE"
   r="26.033001"
   cy="433.87601"
   cx="377.51401"
   style="fill:#91cece" />
</g><circle
   id="circle16"
   data-original="#EA3836"
   r="26.033001"
   cy="311.24374"
   cx="438.30099"
   style="fill:#ea3836" /><path
   inkscape:connector-curvature="0"
   id="path22"
   data-original="#D62121"
   d="m 330.257,289.08173 c 2.517,4.052 3.853,8.721 3.87,13.485 0,14.379 -11.654,26.033 -26.033,26.033 -4.764,-0.017 -9.432,-1.354 -13.485,-3.87 7.411,12.27 23.377,16.21 35.647,8.799 12.27,-7.411 16.21,-23.377 8.799,-35.647 -2.177,-3.602 -5.197,-6.622 -8.798,-8.8 z"
   style="fill:#d62121" /><path
   inkscape:connector-curvature="0"
   id="path24"
   data-original="#83B2B7"
   d="m 390.999,237.01673 c 2.517,4.052 3.853,8.721 3.87,13.485 0,14.379 -11.654,26.033 -26.033,26.033 -4.764,-0.017 -9.432,-1.354 -13.485,-3.87 7.411,12.27 23.377,16.21 35.647,8.799 12.27,-7.411 16.21,-23.377 8.799,-35.647 -2.177,-3.603 -5.196,-6.622 -8.798,-8.8 z"
   style="fill:#83b2b7" /><path
   inkscape:connector-curvature="0"
   id="path26"
   data-original="#D62121"
   d="m 451.742,289.08173 c 2.516,4.052 3.853,8.721 3.87,13.485 0,14.379 -11.654,26.033 -26.033,26.033 -4.764,-0.017 -9.432,-1.354 -13.485,-3.87 7.411,12.27 23.377,16.21 35.647,8.799 12.27,-7.411 16.21,-23.377 8.799,-35.647 -2.177,-3.602 -5.197,-6.622 -8.798,-8.8 z"
   style="fill:#d62121" /><path
   inkscape:connector-curvature="0"
   id="path28"
   data-original="#83B2B7"
   d="m 390.999,341.14673 c 2.517,4.052 3.853,8.721 3.87,13.485 0,14.379 -11.654,26.033 -26.033,26.033 -4.764,-0.017 -9.432,-1.354 -13.485,-3.87 7.411,12.27 23.377,16.21 35.647,8.799 12.27,-7.411 16.21,-23.377 8.799,-35.647 -2.177,-3.602 -5.196,-6.622 -8.798,-8.8 z"
   style="fill:#83b2b7" /><path
   inkscape:connector-curvature="0"
   id="path30"
   data-original="#202033"
   d="m 73.801,320.12073 v 8.478 h 43.388 v 43.388 h 34.71 v -43.388 h 43.388 v -34.71 h -14.483 c -34.277,23.898 -86.541,26.293 -107.003,26.232 z"
   style="fill:#202033" /> </svg>