<?xml version="1.0"?>
<svg xmlns="http://www.w3.org/2000/svg" xmlns:xlink="http://www.w3.org/1999/xlink" version="1.1" id="Layer_1" x="0px" y="0px" viewBox="0 0 461.245 461.245" style="enable-background:new 0 0 461.245 461.245;" xml:space="preserve" width="512px" height="512px" class=""><g><g id="XMLID_2_">
	<path id="XMLID_16_" style="fill:#FFF39D" d="M428.69,166.369h-0.621c-15.619,0-23.441-18.884-12.397-29.928l0.44-0.44   c12.693-12.692,12.693-33.345,0-46.038l-44.388-44.389c-6.102-6.102-14.286-9.83-22.915-9.97   c-8.898-0.144-17.286,3.253-23.564,9.53l-0.44,0.44c-11.044,11.044-29.928,3.222-29.928-12.397v-0.622   C294.876,14.575,280.301,0,262.322,0h-63.399c-17.979,0-32.554,14.575-32.554,32.554v0.622c0,15.619-18.884,23.441-29.928,12.397   l-0.44-0.44c-6.277-6.277-14.666-9.674-23.564-9.53c-8.629,0.14-16.813,3.868-22.914,9.97l-44.39,44.39   c-12.693,12.693-12.693,33.346,0,46.038l0.44,0.44c11.044,11.044,3.222,29.928-12.397,29.928h-0.622   C14.575,166.369,0,180.944,0,198.923v63.398c0,17.979,14.575,32.554,32.554,32.554h0.622c15.619,0,23.441,18.884,12.397,29.928   l-0.44,0.44c-12.693,12.692-12.693,33.345,0,46.038l44.83,44.83c6.277,6.277,14.665,9.674,23.563,9.53   c8.628-0.14,16.812-3.868,22.914-9.97l0,0c11.044-11.044,29.928-3.222,29.928,12.397v0.621c0,17.979,14.575,32.554,32.554,32.554   h63.398c17.98,0,32.555-14.575,32.555-32.555v-0.621c0-15.619,18.884-23.441,29.928-12.397l0.44,0.44   c6.149,6.148,14.324,9.534,23.02,9.534c8.694,0,16.87-3.386,23.019-9.535l44.829-44.83c12.693-12.693,12.693-33.346,0-46.038   l-0.44-0.44c-11.044-11.044-3.222-29.928,12.397-29.928h0.622c17.979,0,32.554-14.575,32.554-32.554v-63.399   C461.244,180.944,446.669,166.369,428.69,166.369z M230.622,337.908c-59.253,0-107.286-48.034-107.286-107.286   c0-59.253,48.034-107.286,107.286-107.286c59.253,0,107.286,48.034,107.286,107.286   C337.909,289.875,289.875,337.908,230.622,337.908z" data-original="#57565C" class="active-path" data-old_color="#57565C"/>
	<path id="XMLID_1000_" style="fill:#FFE529" d="M428.69,166.369h-0.001c-15.848,0-23.785-19.161-12.578-30.367l0.001-0.001   c12.693-12.692,12.693-33.345,0-46.038l-44.388-44.389c-6.102-6.102-14.286-9.83-22.915-9.97   c-8.898-0.144-17.286,3.253-23.564,9.53l-0.001,0.001c-11.206,11.206-30.367,3.269-30.367-12.579v-0.001   C294.876,14.575,280.301,0,262.322,0h-31.7v123.336l0,0c59.253,0,107.286,48.034,107.286,107.286   c0,59.253-48.034,107.286-107.286,107.286l0,0v123.336h31.699c17.98,0,32.555-14.575,32.555-32.555l0,0   c0-15.848,19.161-23.785,30.367-12.579l0.001,0.001c6.149,6.148,14.324,9.534,23.02,9.534c8.694,0,16.87-3.386,23.019-9.535   l44.829-44.83c12.693-12.693,12.693-33.346,0-46.038l-0.001-0.001c-11.206-11.206-3.27-30.367,12.578-30.367h0.002   c17.979,0,32.554-14.575,32.554-32.554v-63.399C461.244,180.944,446.669,166.369,428.69,166.369z" data-original="#3E3D42" class="" data-old_color="#3E3D42"/>
</g></g> </svg>
